# xmcd
#
# Track frame offsets: 
#        150
#        34958
#        85808
#        132867
#        180687
#        223715
#        260018
#        288585
#
# Disc length: 4223 seconds
#
# Revision: 0
# Processed by: cddbd v1.5.2PL0 Copyright (c) Steve Scherf et al.
# Submitted via: ExactAudioCopy v0.99pb1
#
DISCID=79107d08
DTITLE=Larry Carlton with special guest Robben Ford - Live In Tokyo
DYEAR=2007
DGENRE=Fusion
TTITLE0=That Road
TTITLE1=Burnable
TTITLE2=Cold Gold
TTITLE3=Rio Samba
TTITLE4=Derrick's Blues
TTITLE5=Two Bad
TTITLE6=Talk to Your Daughter
TTITLE7=Too Much (bonus track)
EXTD=
EXTT0=
EXTT1=
EXTT2=
EXTT3=
EXTT4=
EXTT5=
EXTT6=
EXTT7=
PLAYORDER=
